<svg width="656" height="659" viewBox="0 0 656 659" fill="none" xmlns="http://www.w3.org/2000/svg">
<g opacity="0.6" clip-path="url(#clip0)">
<path fill-rule="evenodd" clip-rule="evenodd" d="M506.315 501.254C512.947 556.077 352.1 591.836 213.655 566.881C75.2105 541.925 11.6986 444.471 77.7621 392.544C143.826 340.617 499.682 446.431 506.315 501.254Z" fill="#DDE3E9"/>
</g>
<g clip-path="url(#clip1)">
<rect x="89" y="134" width="129" height="262" rx="8" fill="#F2F2F2"/>
<path fill-rule="evenodd" clip-rule="evenodd" d="M153 397C161.284 397 168 390.284 168 382C168 373.716 161.284 367 153 367C144.716 367 138 373.716 138 382C138 390.284 144.716 397 153 397Z" fill="white"/>
<rect x="103" y="162" width="101" height="54" rx="4" fill="white"/>
<g clip-path="url(#clip2)">
<rect x="142" y="178.2" width="43" height="8.1" rx="3" fill="#DDE3E9"/>
<rect x="142" y="191.7" width="28.863" height="8.1" rx="3" fill="#DDE3E9"/>
</g>
<path fill-rule="evenodd" clip-rule="evenodd" d="M124 201C130.627 201 136 195.627 136 189C136 182.373 130.627 177 124 177C117.373 177 112 182.373 112 189C112 195.627 117.373 201 124 201Z" fill="#C5CFD6"/>
<rect x="103" y="224" width="101" height="42" rx="4" fill="white"/>
<g clip-path="url(#clip3)">
<rect x="142" y="236.6" width="43" height="6.3" rx="3" fill="#DDE3E9"/>
<rect x="142" y="247.1" width="28.863" height="6.3" rx="3" fill="#DDE3E9"/>
</g>
<path fill-rule="evenodd" clip-rule="evenodd" d="M124 257C130.627 257 136 251.627 136 245C136 238.373 130.627 233 124 233C117.373 233 112 238.373 112 245C112 251.627 117.373 257 124 257Z" fill="#C5CFD6"/>
<rect x="103" y="274" width="101" height="42" rx="4" fill="white"/>
<g clip-path="url(#clip4)">
<rect x="142" y="286.6" width="43" height="6.3" rx="3" fill="#DDE3E9"/>
<rect x="142" y="297.1" width="28.863" height="6.3" rx="3" fill="#DDE3E9"/>
</g>
<path fill-rule="evenodd" clip-rule="evenodd" d="M124 307C130.627 307 136 301.627 136 295C136 288.373 130.627 283 124 283C117.373 283 112 288.373 112 295C112 301.627 117.373 307 124 307Z" fill="#AFB9C5"/>
<rect x="103" y="324" width="101" height="42" rx="4" fill="white"/>
<g clip-path="url(#clip5)">
<rect x="142" y="336.6" width="43" height="6.3" rx="3" fill="#DDE3E9"/>
<rect x="142" y="347.1" width="28.863" height="6.3" rx="3" fill="#DDE3E9"/>
</g>
<path fill-rule="evenodd" clip-rule="evenodd" d="M124 357C130.627 357 136 351.627 136 345C136 338.373 130.627 333 124 333C117.373 333 112 338.373 112 345C112 351.627 117.373 357 124 357Z" fill="#C5CFD6"/>
</g>
<g clip-path="url(#clip6)">
<path fill-rule="evenodd" clip-rule="evenodd" d="M96.1399 355C94.815 355 93.4943 355.027 92.1711 355.095C91.1625 355.148 89.6212 354.939 88.7678 355.568C87.8811 356.221 87.9421 357.557 88.0807 358.501C88.8129 363.493 90.6001 367.919 94.3389 371.456C100.096 376.901 106.695 379.668 114.504 380.9C119.99 381.766 125.054 380.564 129.092 376.663C132.043 382.139 134.281 388.199 135.404 394.315C135.958 397.333 136.127 400.315 136.03 403.388C135.967 405.356 135.859 407.32 135.648 409.279C135.556 410.13 135.122 411.418 135.455 412.223C135.846 413.167 137.165 413.259 137.757 412.453C138.25 411.783 138.16 410.466 138.261 409.673C138.429 408.355 138.584 407.036 138.695 405.712C138.876 403.569 139.009 401.42 139 399.268C138.977 394.435 137.902 389.583 136.432 384.995C133.612 376.192 129.037 368.369 121.921 362.231C117.545 358.457 112.537 356.929 106.856 356.108C103.318 355.597 99.7233 355 96.1399 355Z" fill="#89C5CC"/>
<path fill-rule="evenodd" clip-rule="evenodd" d="M116.571 390C102.272 390 92.642 401.524 88.0887 413.502C86.3722 418.016 85.9699 422.974 85.3084 427.714C85.096 429.236 85.1747 431.554 84.5572 432.909C84.3331 433.401 83.8194 433.577 84.065 434.247C84.2137 434.652 84.5055 434.901 84.9436 434.981C85.843 435.147 87.1148 434.167 87.8859 433.781C94.2819 430.573 98.4843 425.613 101.912 419.545C104.038 415.784 106.194 411.879 107.456 407.75C108.227 405.227 108.676 402.571 108.94 399.954C109.044 398.923 109.144 397.868 109.138 396.832C109.132 395.803 108.653 395.259 108.309 394.364C113.08 392.558 118.466 392.066 123.299 393.937C127.769 395.668 131.482 399.013 133.561 403.216C134.101 404.308 134.518 405.46 134.821 406.636C135.02 407.406 135.029 408.404 135.398 409.1C136.29 410.788 138.168 409.66 137.988 408.089C137.485 403.708 134.979 399.309 131.775 396.263C127.734 392.421 122.258 390 116.571 390Z" fill="#89C5CC"/>
<rect x="142.725" y="157" width="128.275" height="262" rx="8" fill="#DDE3E9"/>
<path fill-rule="evenodd" clip-rule="evenodd" d="M211 420C219.284 420 226 413.284 226 405C226 396.716 219.284 390 211 390C202.716 390 196 396.716 196 405C196 413.284 202.716 420 211 420Z" fill="white"/>
<g clip-path="url(#clip7)">
<rect x="166" y="185" width="91" height="54" rx="4" fill="white"/>
<g clip-path="url(#clip8)">
<rect x="175" y="201.2" width="33" height="8.1" rx="3" fill="#DDE3E9"/>
<rect x="175" y="214.7" width="22.1507" height="8.1" rx="3" fill="#DDE3E9"/>
</g>
<path fill-rule="evenodd" clip-rule="evenodd" d="M263 219C266.866 219 270 215.866 270 212C270 208.134 266.866 205 263 205C259.134 205 256 208.134 256 212C256 215.866 259.134 219 263 219Z" fill="#DDE3E9"/>
</g>
<rect x="166" y="247" width="91" height="42" rx="4" fill="white"/>
<g clip-path="url(#clip9)">
<rect x="205" y="259.6" width="33" height="6.3" rx="3" fill="#DDE3E9"/>
<rect x="205" y="270.1" width="22.1507" height="6.3" rx="3" fill="#DDE3E9"/>
</g>
<path fill-rule="evenodd" clip-rule="evenodd" d="M187 280C193.627 280 199 274.627 199 268C199 261.373 193.627 256 187 256C180.373 256 175 261.373 175 268C175 274.627 180.373 280 187 280Z" fill="#C5CFD6"/>
<g clip-path="url(#clip10)">
<rect x="166" y="297" width="91" height="42" rx="4" fill="white"/>
<g clip-path="url(#clip11)">
<rect x="175" y="309.6" width="33" height="6.3" rx="3" fill="#DDE3E9"/>
<rect x="175" y="320.1" width="22.1507" height="6.3" rx="3" fill="#AFB9C5"/>
</g>
<path fill-rule="evenodd" clip-rule="evenodd" d="M263 325C266.866 325 270 321.866 270 318C270 314.134 266.866 311 263 311C259.134 311 256 314.134 256 318C256 321.866 259.134 325 263 325Z" fill="#DDE3E9"/>
</g>
<rect x="166" y="347" width="91" height="42" rx="4" fill="white"/>
<g clip-path="url(#clip12)">
<rect x="205" y="359.6" width="33" height="6.3" rx="3" fill="#DDE3E9"/>
<rect x="205" y="370.1" width="22.1507" height="6.3" rx="3" fill="#DDE3E9"/>
</g>
<path fill-rule="evenodd" clip-rule="evenodd" d="M187 380C193.627 380 199 374.627 199 368C199 361.373 193.627 356 187 356C180.373 356 175 361.373 175 368C175 374.627 180.373 380 187 380Z" fill="#C5CFD6"/>
</g>
<g clip-path="url(#clip13)">
<rect x="196" y="179" width="271" height="300" rx="8" fill="#F2F2F2"/>
<rect x="397.43" y="216.283" width="56.6269" height="70.2312" rx="8" fill="white"/>
<path fill-rule="evenodd" clip-rule="evenodd" d="M425.743 257.035C432.892 257.035 438.687 250.824 438.687 243.162C438.687 235.5 432.892 229.289 425.743 229.289C418.595 229.289 412.8 235.5 412.8 243.162C412.8 250.824 418.595 257.035 425.743 257.035Z" fill="#DDE3E9"/>
<rect x="405.519" y="260.503" width="40.4478" height="5.20232" rx="2.60116" fill="#DDE3E9"/>
<rect x="411.991" y="269.173" width="27.5045" height="5.20231" rx="2.60115" fill="#DDE3E9"/>
<path d="M196 187C196 182.582 199.582 179 204 179H459C463.418 179 467 182.582 467 187V206H196V187Z" fill="#C5CFD6"/>
<path fill-rule="evenodd" clip-rule="evenodd" d="M209 197C211.209 197 213 195.209 213 193C213 190.791 211.209 189 209 189C206.791 189 205 190.791 205 193C205 195.209 206.791 197 209 197Z" fill="#F2F2F2"/>
<path fill-rule="evenodd" clip-rule="evenodd" d="M221 197C223.209 197 225 195.209 225 193C225 190.791 223.209 189 221 189C218.791 189 217 190.791 217 193C217 195.209 218.791 197 221 197Z" fill="#F2F2F2"/>
<path fill-rule="evenodd" clip-rule="evenodd" d="M233 197C235.209 197 237 195.209 237 193C237 190.791 235.209 189 233 189C230.791 189 229 190.791 229 193C229 195.209 230.791 197 233 197Z" fill="#F2F2F2"/>
<g clip-path="url(#clip14)">
<rect x="397.43" y="293.451" width="56.6269" height="168.208" rx="8" fill="white"/>
<g clip-path="url(#clip15)">
<rect x="415.43" y="311.451" width="21" height="26" rx="4" fill="#DDE3E9"/>
<rect x="415.43" y="345.451" width="21" height="25" rx="4" fill="#AFB9C5"/>
<rect x="415.43" y="378.451" width="21" height="25" rx="4" fill="#DDE3E9"/>
<rect x="415.43" y="444.451" width="21" height="25" rx="4" fill="#DDE3E9"/>
<rect x="415.43" y="411.451" width="21" height="25" rx="4" fill="#C5CFD6"/>
</g>
</g>
<g clip-path="url(#clip16)">
<rect x="212" y="223" width="161" height="47" rx="4" fill="white"/>
<g clip-path="url(#clip17)">
<rect x="221" y="237.1" width="103" height="7.05" rx="3" fill="#DDE3E9"/>
<rect x="221" y="248.85" width="69.137" height="7.05" rx="3" fill="#DDE3E9"/>
</g>
</g>
<g clip-path="url(#clip18)">
<rect x="212" y="278" width="161" height="39" rx="4" fill="white"/>
<g clip-path="url(#clip19)">
<rect x="221" y="289.7" width="103" height="5.85" rx="2.925" fill="#DDE3E9"/>
<rect x="221" y="299.45" width="69.137" height="5.85" rx="2.925" fill="#DDE3E9"/>
</g>
</g>
<g clip-path="url(#clip20)">
<rect x="212" y="325" width="161" height="39" rx="4" fill="white"/>
<g clip-path="url(#clip21)">
<rect x="221" y="336.7" width="103" height="5.85" rx="2.925" fill="#DDE3E9"/>
<rect x="221" y="346.45" width="69.137" height="5.85" rx="2.925" fill="#DDE3E9"/>
</g>
</g>
<g clip-path="url(#clip22)">
<rect x="212" y="466" width="161" height="39" rx="4" fill="white"/>
<g clip-path="url(#clip23)">
<rect x="221" y="477.7" width="103" height="5.85" rx="2.925" fill="#DDE3E9"/>
</g>
</g>
<g clip-path="url(#clip24)">
<rect x="212" y="419" width="161" height="39" rx="4" fill="white"/>
<g clip-path="url(#clip25)">
<rect x="221" y="430.7" width="103" height="5.85" rx="2.925" fill="#DDE3E9"/>
<rect x="221" y="440.45" width="69.137" height="5.85" rx="2.925" fill="#DDE3E9"/>
</g>
</g>
<g clip-path="url(#clip26)">
<rect x="212" y="372" width="161" height="39" rx="4" fill="white"/>
<g clip-path="url(#clip27)">
<rect x="221" y="383.7" width="103" height="5.85" rx="2.925" fill="#DDE3E9"/>
<rect x="221" y="393.45" width="69.137" height="5.85" rx="2.925" fill="#DDE3E9"/>
</g>
</g>
</g>
<path fill-rule="evenodd" clip-rule="evenodd" d="M84.6911 379.355C99.8074 406.584 117.413 432.948 127.986 462.718C127.56 459.209 127.108 455.704 126.602 452.204C123.92 433.648 120.585 415.228 117.082 396.831C115.298 387.463 113.41 378.13 111.475 368.798C110.434 363.786 109.406 358.77 108.343 353.762C108.086 352.549 107.865 350.43 107.543 348.283C117.818 384.486 127.727 420.715 134.974 457.788C135.925 462.654 136.735 467.51 137.398 472.359C137.625 471.253 137.848 470.146 138.092 469.043C141.025 455.821 145.424 442.704 150.662 430.34C153.166 424.428 156.042 418.645 159.428 413.256C161.54 409.897 166.52 405.905 168.447 402.465C157.911 423.212 154.107 449.171 148.024 471.727C146.539 477.231 145.045 482.726 143.581 488.231C152.755 468.478 166.988 452.249 186.777 445.216C162.823 462.209 148.455 491.969 138.773 522.406C138.742 522.767 138.704 523.128 138.671 523.489C141.52 517.684 145.109 512.433 149.973 508.755C160.383 500.882 171.931 503.175 182.029 509.929C174.104 504.52 159.78 509.445 153.112 514.943C148.338 518.879 144.258 524.159 140.715 529.31C139.866 530.544 138.708 531.985 137.484 533.522C135.769 545.478 132.973 557.352 129.016 569.132C129.669 565.751 129.196 560.343 129.378 557.823C129.397 557.55 129.413 557.277 129.433 557.005C128.831 559.584 128.25 562.134 127.69 564.643C128.803 559.856 129.407 554.858 129.879 549.809C130.001 547.639 130.12 545.469 130.245 543.299C130.205 539.182 130.047 535.047 129.78 530.906C128.833 526.882 127.772 523.086 126.897 519.929C123.741 508.538 119.113 497.626 113.417 487.445C108.221 478.155 102 469.739 94.8193 462.129C90.9481 458.027 86.8967 454.121 82.9023 450.16C81.4579 448.728 78.8762 445.208 76.6434 443.373C92.9047 452.998 109.642 463.412 121.505 478.921C120.114 473.187 118.603 467.534 117.006 461.994C108.899 433.888 98.6631 404.758 84.6911 379.355Z" fill="#DDE3E9"/>
<path fill-rule="evenodd" clip-rule="evenodd" d="M100.938 533.483C100.938 564.697 103.24 590 134.14 590C165.04 590 167.342 564.697 167.342 533.483" fill="#C5CFD6"/>
<rect x="398.425" y="140.824" width="4.85884" height="21.7371" rx="2.42942" fill="#DDE3E9"/>
<rect x="409.762" y="126.912" width="4.85884" height="35.6489" rx="2.42942" fill="#DDE3E9"/>
<rect x="421.1" y="119.956" width="4.85884" height="42.6048" rx="2.42942" fill="#DDE3E9"/>
<rect x="432.437" y="126.912" width="4.85884" height="35.6489" rx="2.42942" fill="#DDE3E9"/>
<rect x="443.774" y="113" width="4.85884" height="49.5607" rx="2.42942" fill="#C5CFD6"/>
<path fill-rule="evenodd" clip-rule="evenodd" d="M0 379.285C0 369.6 7.28988 361.673 16.1961 361.673V379.285L5.1277 392.105C1.97917 388.971 0 384.373 0 379.285Z" fill="#F2F2F2"/>
<path fill-rule="evenodd" clip-rule="evenodd" d="M15.7676 379.062H32.1234C32.1234 383.602 30.3987 387.856 27.6722 390.947C24.6733 394.327 20.4028 396.452 15.7676 396.452C11.4979 396.452 7.58964 394.618 4.58998 391.72L15.7676 379.062Z" fill="#AFB9C5"/>
<path fill-rule="evenodd" clip-rule="evenodd" d="M32.3923 379.063C32.3923 369.5 25.1024 361.673 16.1961 361.673V379.063H32.3923ZM8.09807 361.673L14.5765 377.324L0 370.368C1.44146 366.311 4.67826 363.221 8.09807 361.673Z" fill="#C5CFD6"/>
<path fill-rule="evenodd" clip-rule="evenodd" d="M526.995 387.044C525.439 388.817 523.235 389.931 520.783 389.931C516.072 389.931 512.253 385.844 512.253 380.801C512.253 375.759 516.072 371.672 520.783 371.672V354.717C507.381 354.717 496.412 366.458 496.412 380.801C496.412 395.145 507.381 406.886 520.783 406.886C527.823 406.886 534.185 403.699 538.522 398.628L526.995 387.044Z" fill="#F2F2F2"/>
<path fill-rule="evenodd" clip-rule="evenodd" d="M520.706 354.717V371.672C525.402 371.672 529.209 375.759 529.209 380.801H545C545 366.458 534.065 354.717 520.706 354.717Z" fill="#AFB9C5"/>
<path fill-rule="evenodd" clip-rule="evenodd" d="M528.882 380.802C528.882 383.764 527.583 386.397 525.565 388.097L535.494 401.669C541.274 396.81 545 389.278 545 380.802H528.882Z" fill="#C5CFD6"/>
<path fill-rule="evenodd" clip-rule="evenodd" d="M372.553 147.348C371.356 148.708 369.66 149.562 367.774 149.562C364.15 149.562 361.212 146.428 361.212 142.562C361.212 138.697 364.15 135.563 367.774 135.563V122.564C357.465 122.564 349.027 131.566 349.027 142.562C349.027 153.559 357.465 162.561 367.774 162.561C373.189 162.561 378.083 160.117 381.419 156.229L372.553 147.348Z" fill="#F2F2F2"/>
<path fill-rule="evenodd" clip-rule="evenodd" d="M367.652 122.564V135.563C371.253 135.563 374.171 138.697 374.171 142.562H386.278C386.278 131.566 377.895 122.564 367.652 122.564Z" fill="#AFB9C5"/>
<path fill-rule="evenodd" clip-rule="evenodd" d="M374.19 142.562C374.19 144.784 373.215 146.759 371.701 148.034L379.149 158.213C383.484 154.569 386.278 148.92 386.278 142.562H374.19Z" fill="#C5CFD6"/>
<g style="mix-blend-mode:darken">
<path fill-rule="evenodd" clip-rule="evenodd" d="M57.1058 318.327C57.1058 331.57 58.2885 342.305 74.1634 342.305C90.0382 342.305 91.221 331.57 91.221 318.327" fill="#F2F2F2"/>
<path fill-rule="evenodd" clip-rule="evenodd" d="M78.886 310.065C78.3041 310.954 77.7853 311.861 77.327 312.781C77.3108 310.886 77.4294 308.977 77.7533 307.041C78.307 303.726 79.1527 300.428 79.9474 297.135C80.5185 294.769 80.4824 290.518 82.6499 288.633C83.2442 288.225 83.3873 289.025 83.3873 289.371C83.3948 289.445 83.3857 287.955 82.8087 288.215C79.3796 289.78 78.2685 294.7 77.1706 297.164C75.5689 300.759 74.206 304.435 73.6448 308.176C73.503 309.122 73.4258 310.066 73.408 311.01C73.2915 310.757 73.182 310.503 73.0609 310.252C71.0817 306.15 68.4107 302.148 65.0794 298.457C64.2594 297.549 53.9492 288.588 53.1421 289.96C53.2217 290.159 53.3884 290.324 53.6427 290.456C53.6576 290.471 53.658 290.462 53.6493 290.44C54.2548 291.304 55.9765 292.639 56.5127 293.397C57.8623 295.302 58.9112 297.325 59.9772 299.308C62.2292 303.501 64.3183 307.735 66.3436 311.979C66.8151 312.967 67.3066 313.95 67.8081 314.93C62.639 308.342 55.7434 302.362 46.251 298.938C49.4931 300.396 51.6187 303.137 53.8082 305.237C56.4489 307.769 59.2302 310.233 61.8759 312.762C64.9965 315.746 68.6682 318.889 71.6698 322.191C74.5772 327.584 77.4025 332.983 79.1465 338.652C78.4319 336.693 79.0905 333.987 78.9682 331.931C78.8711 330.295 78.6546 328.672 78.3581 327.052C78.7247 327.782 79.0407 328.514 79.1838 329.194C79.0532 328.053 78.9026 326.92 78.7409 325.792C79.156 324.736 79.5637 323.751 79.8391 322.94C81.2505 318.777 82.9311 314.686 85.2197 310.699C87.3374 307.011 89.7666 303.369 92.4135 299.839C93.6482 298.193 94.9 296.553 96.1438 294.91C96.9579 293.835 97.7331 292.113 98.8666 291.083C91.5396 297.002 83.5346 302.963 78.886 310.065Z" fill="#F2F2F2"/>
</g>
<path fill-rule="evenodd" clip-rule="evenodd" d="M266.166 338.638C272.129 342.18 277.988 343.891 280.738 343.192C287.634 341.44 288.269 316.578 282.932 306.777C277.596 296.976 250.164 292.704 248.781 312.123C248.302 318.863 251.173 324.878 255.417 329.786L247.808 364.732H269.909L266.166 338.638Z" fill="#B28B67"/>
<path fill-rule="evenodd" clip-rule="evenodd" d="M253.718 334.158C250.945 321.997 243.042 313.708 244.249 308.272C245.456 302.837 250.683 301.512 250.683 301.512C250.683 301.512 253.386 290.737 268.118 292.346C282.851 293.955 291.843 299.984 287.959 313.251C284.39 313.251 280.081 311.979 274.122 314.158C271.286 315.196 270.065 320.592 270.065 320.592H267.372C267.372 320.592 263.452 314.188 259.642 315.885C255.831 317.583 257.91 324.132 257.91 324.132L256.583 334.158H253.718Z" fill="#191847"/>
<path fill-rule="evenodd" clip-rule="evenodd" d="M187.378 478.161C178.542 478.161 171.378 485.325 171.378 494.161V574.684C171.378 583.52 178.542 590.684 187.378 590.684H290.742C299.579 590.684 306.742 583.52 306.742 574.684V494.161C306.742 485.325 299.579 478.161 290.742 478.161H187.378ZM201.162 503.57C198.953 503.57 197.162 505.361 197.162 507.57V561.276C197.162 563.485 198.953 565.276 201.162 565.276H276.959C279.168 565.276 280.959 563.485 280.959 561.276V507.57C280.959 505.361 279.168 503.57 276.959 503.57H201.162Z" fill="#C5CFD6"/>
<path fill-rule="evenodd" clip-rule="evenodd" d="M398.052 586.147C379.897 564.299 367.613 548.103 361.2 537.557C350.218 519.5 341.231 503.432 338.395 497.294C331.631 482.658 353.965 475.805 359.02 482.631C366.67 492.964 383.009 525.478 408.035 580.174L398.052 586.147Z" fill="#B28B67"/>
<path fill-rule="evenodd" clip-rule="evenodd" d="M360.849 579.795L327.061 495.981C319.834 480.702 354.733 470.659 360.044 477.769C372.102 493.912 400.76 557.593 404.352 562.403L360.849 579.795Z" fill="#2F3676"/>
<path fill-rule="evenodd" clip-rule="evenodd" d="M270.86 562.986C277.442 553.525 301.382 521.695 314.421 508.525C318.168 504.741 321.825 501.108 325.283 497.723C335.561 487.662 356.029 504.573 345.77 513.737C320.219 536.56 282.94 567.369 279.825 570.116C275.459 573.966 266.723 568.932 270.86 562.986Z" fill="#B28B67"/>
<path fill-rule="evenodd" clip-rule="evenodd" d="M275.226 559.228C274.529 558.299 273.187 558.08 272.288 558.831C270.791 560.079 268.732 561.926 267.974 563.219C266.729 565.345 265.058 569.832 265.058 569.832C267.561 571.256 310.037 595.423 310.037 595.423C310.037 595.423 315.137 590.708 311.626 588.104C308.116 585.499 305.832 583.711 305.832 583.711L290.355 562.697C290.024 562.247 289.381 562.157 288.932 562.498L285.774 564.894C285.774 564.894 281.336 564.512 279.149 563.268C277.86 562.535 276.294 560.65 275.226 559.228Z" fill="#E4E4E4"/>
<path fill-rule="evenodd" clip-rule="evenodd" d="M392.937 581.929C391.869 581.47 390.606 581.942 390.208 583.033C389.545 584.852 388.698 587.47 388.698 588.965C388.698 591.42 389.528 596.129 389.528 596.129C392.417 596.129 441.465 596.129 441.465 596.129C441.465 596.129 443.489 589.533 439.128 589.007C434.766 588.481 431.881 588.058 431.881 588.058L407.807 577.482C407.295 577.257 406.698 577.496 406.483 578.011L404.963 581.645C404.963 581.645 400.925 583.501 398.4 583.501C396.907 583.501 394.585 582.636 392.937 581.929Z" fill="#E4E4E4"/>
<path fill-rule="evenodd" clip-rule="evenodd" d="M314.903 500.167C314.903 500.167 272.779 493.404 258.472 490.918C231.286 486.195 223.358 471.778 228.046 440.323L278.136 440.323C288.079 443.153 361.227 475.323 361.227 475.323C370 479.615 368.366 492.27 366.763 496.439C366.665 496.694 322.39 571.367 322.39 571.367L281.414 545.644L314.98 503.198C314.98 503.198 316.31 500.559 314.903 500.167Z" fill="#5C63AB"/>
<path fill-rule="evenodd" clip-rule="evenodd" d="M347.885 449.7L318.512 428.444L312.019 444.262L341.106 456.148C349.332 465.671 353.932 469.64 354.906 468.057C355.727 466.722 355.085 465.473 354.494 464.322C354.034 463.425 353.604 462.588 353.92 461.818C354.643 460.057 360.169 460.243 365.405 460.64C370.642 461.036 369.116 458.74 367.853 457.607C362.508 454.454 355.852 451.818 347.885 449.7ZM193.845 487.153C196.543 481.758 205.733 429.178 205.733 429.178L224.976 429.252C224.976 429.252 207.153 485.95 205.733 489.419C203.888 493.925 207.022 500.473 209.148 504.913C209.476 505.6 209.781 506.236 210.039 506.807C207.09 508.107 205.674 506.535 204.18 504.878C202.493 503.006 200.708 501.026 196.506 502.952C194.883 503.697 193.346 504.576 191.846 505.436C186.661 508.406 181.899 511.134 175.42 507.194C174.393 506.57 173.267 504.218 175.987 502.381C182.762 497.803 192.526 489.79 193.845 487.153Z" fill="#B28B67"/>
<path fill-rule="evenodd" clip-rule="evenodd" d="M260.419 349.606L268.382 348.261C297.926 373.411 310.06 421.727 346.274 447.322L337.558 457.969C274.734 450.304 259.163 391.369 260.419 349.606Z" fill="#E87613"/>
<path fill-rule="evenodd" clip-rule="evenodd" d="M225.708 448.216C225.708 448.216 273.599 448.216 296.163 448.216C299.383 448.216 298.776 443.635 298.311 441.323C292.939 414.644 271.972 385.885 271.972 347.908L251.65 344.768C234.84 371.409 229.027 404.209 225.708 448.216Z" fill="#DDE3E9"/>
<path fill-rule="evenodd" clip-rule="evenodd" d="M217.786 467.272C214.619 474.766 211.514 481.306 208.588 486.328H193.478C191.853 434.53 211.753 394.674 228.407 370.642C224.71 370.381 221.372 368.856 219.262 365.105C211.834 351.897 214.517 344.625 222.455 342.235C226.82 340.92 230.925 341.817 235.84 342.891C239.861 343.77 244.424 344.767 250.114 344.768C250.116 344.768 250.118 344.768 250.12 344.768C250.671 344.768 251.173 344.804 251.628 344.874L258.372 345.253C258.372 345.253 285.752 436.696 273.474 467.272H217.786Z" fill="#FF9B21"/>
<path fill-rule="evenodd" clip-rule="evenodd" d="M217.786 467.272C221.94 457.44 226.2 445.964 230.3 434.111C231.826 447.164 234.368 460.273 238.599 467.272H217.786Z" fill="black" fill-opacity="0.1"/>
<defs>
<clipPath id="clip0">
<rect width="454.59" height="196.384" fill="white" transform="translate(51.5133 378.596)"/>
</clipPath>
<clipPath id="clip1">
<rect width="129" height="262" fill="white" transform="translate(89 134)"/>
</clipPath>
<clipPath id="clip2">
<rect width="43" height="21.6" fill="white" transform="translate(142 178.2)"/>
</clipPath>
<clipPath id="clip3">
<rect width="43" height="16.8" fill="white" transform="translate(142 236.6)"/>
</clipPath>
<clipPath id="clip4">
<rect width="43" height="16.8" fill="white" transform="translate(142 286.6)"/>
</clipPath>
<clipPath id="clip5">
<rect width="43" height="16.8" fill="white" transform="translate(142 336.6)"/>
</clipPath>
<clipPath id="clip6">
<rect width="167" height="262" fill="white" transform="translate(104 157)"/>
</clipPath>
<clipPath id="clip7">
<rect width="91" height="54" fill="white" transform="translate(166 185)"/>
</clipPath>
<clipPath id="clip8">
<rect width="33" height="21.6" fill="white" transform="translate(175 201.2)"/>
</clipPath>
<clipPath id="clip9">
<rect width="33" height="16.8" fill="white" transform="translate(205 259.6)"/>
</clipPath>
<clipPath id="clip10">
<rect width="91" height="42" fill="white" transform="translate(166 297)"/>
</clipPath>
<clipPath id="clip11">
<rect width="33" height="16.8" fill="white" transform="translate(175 309.6)"/>
</clipPath>
<clipPath id="clip12">
<rect width="33" height="16.8" fill="white" transform="translate(205 359.6)"/>
</clipPath>
<clipPath id="clip13">
<rect width="271" height="300" fill="white" transform="translate(196 179)"/>
</clipPath>
<clipPath id="clip14">
<rect width="56.6269" height="168.208" fill="white" transform="translate(397.43 293.451)"/>
</clipPath>
<clipPath id="clip15">
<rect width="21" height="158" fill="white" transform="translate(415.43 311.451)"/>
</clipPath>
<clipPath id="clip16">
<rect width="161" height="47" fill="white" transform="translate(212 223)"/>
</clipPath>
<clipPath id="clip17">
<rect width="103" height="18.8" fill="white" transform="translate(221 237.1)"/>
</clipPath>
<clipPath id="clip18">
<rect width="161" height="39" fill="white" transform="translate(212 278)"/>
</clipPath>
<clipPath id="clip19">
<rect width="103" height="15.6" fill="white" transform="translate(221 289.7)"/>
</clipPath>
<clipPath id="clip20">
<rect width="161" height="39" fill="white" transform="translate(212 325)"/>
</clipPath>
<clipPath id="clip21">
<rect width="103" height="15.6" fill="white" transform="translate(221 336.7)"/>
</clipPath>
<clipPath id="clip22">
<rect width="161" height="39" fill="white" transform="translate(212 466)"/>
</clipPath>
<clipPath id="clip23">
<rect width="103" height="15.6" fill="white" transform="translate(221 477.7)"/>
</clipPath>
<clipPath id="clip24">
<rect width="161" height="39" fill="white" transform="translate(212 419)"/>
</clipPath>
<clipPath id="clip25">
<rect width="103" height="15.6" fill="white" transform="translate(221 430.7)"/>
</clipPath>
<clipPath id="clip26">
<rect width="161" height="39" fill="white" transform="translate(212 372)"/>
</clipPath>
<clipPath id="clip27">
<rect width="103" height="15.6" fill="white" transform="translate(221 383.7)"/>
</clipPath>
</defs>
</svg>
